<svg version="1.1" id="Layer_1" xmlns="http://www.w3.org/2000/svg" x="0" y="0" viewBox="0 0 1000 1000" xml:space="preserve"><style>.st0{fill:#fff}</style><path class="st0" d="M638.8 248.6c-72.6-4.1-143.5 34.4-179.1 98.5l40 22.2c27.1-48.8 80.5-78.2 136.4-75.1 39 2.3 74.8 19.6 100.7 48.7 26 29.2 39 66.7 36.8 105.7-.8 13.5-3.4 26.7-7.7 39.3l43.3 14.9c5.7-16.5 9.1-33.9 10.1-51.5 3-51.2-14.2-100.5-48.3-138.8-34-38.2-81-61-132.2-63.9zM976.3 437.5l-75.5-4.4c-12.6-.7-23.4 8.9-24.2 21.5-.7 12.6 8.9 23.5 21.5 24.2l75.5 4.4h1.3c12 0 22.1-9.4 22.8-21.6.9-12.5-8.7-23.3-21.4-24.1zM948.8 304.5c11.3-5.7 15.9-19.4 10.2-30.7-5.7-11.3-19.4-15.8-30.7-10.2l-67.6 33.9c-11.3 5.7-15.9 19.4-10.2 30.7 4 8 12.1 12.6 20.5 12.6 3.4 0 7-.8 10.2-2.4l67.6-33.9zM831.4 130.4c-10.6-6.9-24.8-4-31.7 6.5L758.2 200c-6.9 10.6-4 24.8 6.5 31.7 3.9 2.5 8.3 3.8 12.6 3.8 7.4 0 14.8-3.6 19.2-10.3l41.5-63.1c6.9-10.5 4-24.7-6.6-31.7zM642.2 191.2h1.3c12 0 22.1-9.4 22.8-21.6l4.4-75.5c.7-12.6-8.9-23.5-21.5-24.2-12.3-.6-23.5 8.9-24.2 21.5l-4.4 75.5c-.7 12.8 8.9 23.6 21.6 24.3zM505.4 219.8c3.4 0 7-.8 10.3-2.4 11.3-5.7 15.9-19.4 10.2-30.7L492 119.2c-5.7-11.3-19.4-15.8-30.7-10.2-11.3 5.7-15.9 19.4-10.2 30.7l33.9 67.5c4 8 12.1 12.6 20.4 12.6zM412.7 271.5L349.6 230c-10.5-6.9-24.7-4-31.7 6.6-6.9 10.6-4 24.8 6.6 31.7l63.2 41.5c3.9 2.5 8.2 3.8 12.5 3.8 7.4 0 14.8-3.6 19.2-10.3 6.8-10.7 3.9-24.9-6.7-31.8z"/><path class="st0" d="M770.5 929.8H161.4C73 929.8 1.1 857.9 1.1 769.5 1.1 681.6 72.3 610 160 609.2c11.7-153.5 140.4-274.8 296.8-274.8 105.5 0 201.7 55.1 255.4 145.1 19.2-5.1 38.7-7.7 58.3-7.7 126.3 0 229 102.7 229 229s-102.7 229-229 229zM161.4 655c-63.2 0-114.5 51.4-114.5 114.5S98.3 884 161.4 884h609.1c101 0 183.2-82.2 183.2-183.2s-82.2-183.2-183.2-183.2c-20.8 0-41.5 3.7-61.6 10.9l-18.9 6.8-9.2-17.9c-43.4-84.6-129.3-137.2-224.1-137.2-138.9 0-251.9 113-251.9 251.9v26.5l-26.2-2.2c-5.5-.8-11.3-1.4-17.2-1.4z"/></svg>